<?xml version="1.0" encoding="UTF-8"?>
<svg width="100px" height="100px" viewBox="0 0 100 100" version="1.1" xmlns="http://www.w3.org/2000/svg" xmlns:xlink="http://www.w3.org/1999/xlink">
    <!-- Generator: Sketch 52.6 (67491) - http://www.bohemiancoding.com/sketch -->
    <title>Work with Portals in Dynamics 365/starter-portals</title>
    <desc>Created with Sketch.</desc>
    <defs>
        <rect id="path-1" x="0" y="0" width="96" height="96" rx="48"></rect>
        <filter x="-8.7%" y="-5.6%" width="117.4%" height="111.3%" filterUnits="objectBoundingBox" id="filter-3">
            <feOffset dx="0" dy="2" in="SourceAlpha" result="shadowOffsetOuter1"></feOffset>
            <feColorMatrix values="0 0 0 0 0   0 0 0 0 0   0 0 0 0 0  0 0 0 0.0966089221 0" type="matrix" in="shadowOffsetOuter1" result="shadowMatrixOuter1"></feColorMatrix>
            <feMerge>
                <feMergeNode in="shadowMatrixOuter1"></feMergeNode>
                <feMergeNode in="SourceGraphic"></feMergeNode>
            </feMerge>
        </filter>
        <path d="M4.07234989,21.1446998 L21.9276501,21.1446998 C22.4799349,21.1446998 22.9276501,20.6969845 22.9276501,20.1446998 L22.9276501,7.63479121 C22.9276501,7.08250646 22.4799349,6.63479121 21.9276501,6.63479121 L4.07234989,6.63479121 C3.52006514,6.63479121 3.07234989,7.08250646 3.07234989,7.63479121 L3.07234989,20.1446998 C3.07234989,20.6969845 3.52006514,21.1446998 4.07234989,21.1446998 Z" id="path-4"></path>
        <filter x="-5.0%" y="-6.9%" width="110.1%" height="113.8%" filterUnits="objectBoundingBox" id="filter-5">
            <feOffset dx="0" dy="2" in="SourceAlpha" result="shadowOffsetInner1"></feOffset>
            <feComposite in="shadowOffsetInner1" in2="SourceAlpha" operator="arithmetic" k2="-1" k3="1" result="shadowInnerInner1"></feComposite>
            <feColorMatrix values="0 0 0 0 0   0 0 0 0 0   0 0 0 0 0  0 0 0 0.102185236 0" type="matrix" in="shadowInnerInner1"></feColorMatrix>
        </filter>
    </defs>
    <g id="Badges" stroke="none" stroke-width="1" fill="none" fill-rule="evenodd">
        <g id="Work-with-Portals-in-Dynamics-365-1" transform="translate(-50.000000, -860.000000)">
            <g id="Work-with-Portals-in-Dynamics-365/starter-portals" transform="translate(50.000000, 860.000000)">
                <g id="Mask" transform="translate(2.000000, 2.000000)">
                    <mask id="mask-2" fill="white">
                        <use xlink:href="#path-1"></use>
                    </mask>
                    <use id="BG" fill="#01B6C3" xlink:href="#path-1"></use>
                    <g id="Portal" filter="url(#filter-3)" mask="url(#mask-2)">
                        <g transform="translate(25.000000, 9.000000)">
                            <path d="M36,19.1976307 C39.3137085,19.1976307 42,21.8839222 42,25.1976307 L42,65 L4,65 L4,25.1976307 C4,21.8839222 6.6862915,19.1976307 10,19.1976307 L10.5650802,19.1976741 C10.9662397,19.1976741 11.3285747,18.9579541 11.4854682,18.5887478 C11.6354036,18.2359155 11.7744076,17.9642782 11.9024802,17.7738358 C13.8303031,14.9071857 18.5389,13.7314148 18.5389,11.1937307 C18.5389,9.54133074 17.2928,8.35383074 17.2928,6.21323074 C17.4451,2.73663074 20.3006,0.853830738 22.9998,0.853830738 C25.699,0.853830738 28.55446,2.73663074 28.7068,6.21323074 C28.7068,8.35393074 27.4607,9.54533074 27.4611,11.1937307 C27.4611,13.7332309 32.1906782,14.9080242 34.1102757,17.788845 C34.2349781,17.9759911 34.3702982,18.2420859 34.5162361,18.5871295 L34.5161937,18.5871474 C34.6727029,18.9571849 35.0354689,19.1976307 35.4372436,19.1976307 L36,19.1976307 Z" id="Path" fill="#E1E4E1"></path>
                            <path d="M23,65 L41.9318579,65 L41.9318579,27.1976307 C41.9318579,23.8839222 39.2455664,21.1976307 35.9318579,21.1976307 L24.0684075,21.1976307 C23.5167468,21.1976307 23.0692904,21.6443725 23.0684088,22.1960326 L23,65 Z" id="Fill-811" fill="#000000" opacity="0.047781808"></path>
                            <path d="M13.147607,16.3922012 C15.3511998,14.4477217 18.5389,13.2817309 18.5389,11.1937307 C18.5389,9.54133074 17.2928,8.35383074 17.2928,6.21323074 C17.4451,2.73663074 20.3006,0.853830738 22.9998,0.853830738 C23.2232665,0.853830738 23.447804,0.866735761 23.6717899,0.892381811 C21.2396565,1.24494579 19.4348398,3.97084422 19.2928,7.21323074 C19.2928,9.35383074 19.6752742,10.5413307 19.6752742,12.1937307 C19.6752742,14.2876015 15.8906804,14.6173715 13.147607,16.3922012 Z" id="Fill-3" fill="#FFFFFF" opacity="0.699999988"></path>
                            <path d="M19.9999375,26.9987645 C18.8959375,26.9987645 17.9999375,26.1037645 17.9999375,24.9987645 C17.9999375,23.8927645 18.8959375,22.9987645 19.9999375,22.9987645 C21.1049375,22.9987645 21.9999375,23.8927645 21.9999375,24.9987645 C21.9999375,26.1037645 21.1049375,26.9987645 19.9999375,26.9987645 Z" id="Fill-177" fill="#87BF5F"></path>
                            <path d="M18.0709375,25.4987645 C18.0289375,25.6597645 17.9999375,25.8247645 17.9999375,25.9987645 C17.9999375,27.1037645 18.8959375,27.9987645 19.9999375,27.9987645 C21.1049375,27.9987645 21.9999375,27.1037645 21.9999375,25.9987645 C21.9999375,25.8247645 21.9709375,25.6597645 21.9289375,25.4987645 C21.7059375,26.3607645 20.9309375,26.9987645 19.9999375,26.9987645 C19.0689375,26.9987645 18.2939375,26.3607645 18.0709375,25.4987645 Z" id="Fill-178" fill="#C5CCCD"></path>
                            <path d="M21.4139375,23.5847645 L18.5859375,26.4127645 C19.3669375,27.1937645 20.6329375,27.1947645 21.4139375,26.4127645 C22.1959375,25.6307645 22.1949375,24.3657645 21.4139375,23.5847645 Z" id="Fill-179" fill="#69994E"></path>
                            <path d="M25.9999375,26.9987645 C24.8959375,26.9987645 23.9999375,26.1037645 23.9999375,24.9987645 C23.9999375,23.8927645 24.8959375,22.9987645 25.9999375,22.9987645 C27.1049375,22.9987645 27.9999375,23.8927645 27.9999375,24.9987645 C27.9999375,26.1037645 27.1049375,26.9987645 25.9999375,26.9987645 Z" id="Fill-180" fill="#C0463C"></path>
                            <path d="M24.0699375,25.4987645 C24.0289375,25.6597645 23.9999375,25.8247645 23.9999375,25.9987645 C23.9999375,27.1037645 24.8949375,27.9987645 25.9999375,27.9987645 C27.1039375,27.9987645 27.9999375,27.1037645 27.9999375,25.9987645 C27.9999375,25.8247645 27.9709375,25.6597645 27.9289375,25.4987645 C27.7059375,26.3607645 26.9309375,26.9987645 25.9999375,26.9987645 C25.0689375,26.9987645 24.2929375,26.3607645 24.0699375,25.4987645 Z" id="Fill-181" fill="#C5CCCD"></path>
                            <path d="M27.4139375,23.5847645 L24.5859375,26.4127645 C25.3669375,27.1937645 26.6319375,27.1947645 27.4139375,26.4127645 C28.1959375,25.6307645 28.1949375,24.3657645 27.4139375,23.5847645 Z" id="Fill-182" fill="#AA3E35"></path>
                            <rect id="Rectangle" fill="#ADBDC4" x="0" y="65" width="46" height="6" rx="3"></rect>
                            <path d="M1.5959456e-16,68 L20.0297491,68 C21.6866033,68 23.0297491,66.6568542 23.0297491,65 L43,65 C44.6568542,65 46,66.3431458 46,68 L46,68 C46,69.6568542 44.6568542,71 43,71 L3,71 C1.34314575,71 2.02906125e-16,69.6568542 0,68 Z" id="Rectangle" fill-opacity="0.0977977808" fill="#000000"></path>
                            <g id="Group-50" stroke-width="1" fill="none" transform="translate(10.000000, 27.000000)">
                                <path d="M3,3 L23,3 C24.6568542,3 26,4.34314575 26,6 L26,38 L0,38 L-4.4408921e-16,6 C-6.46995335e-16,4.34314575 1.34314575,3 3,3 Z" id="Rectangle" fill="#30404D"></path>
                                <g id="Fill-822">
                                    <use fill="#55B7D9" fill-rule="evenodd" xlink:href="#path-4"></use>
                                    <use fill="black" fill-opacity="1" filter="url(#filter-5)" xlink:href="#path-4"></use>
                                </g>
                                <g id="Group" transform="translate(9.272569, 10.389745)" fill="#8BD0E9">
                                    <path d="M0.513822513,6.6029129 C0.350098506,6.44917859 0.350098506,6.19965597 0.513822513,6.04552747 L6.39109455,0.526859877 C6.55523836,0.373125565 6.82097501,0.373125565 6.98469902,0.526859877 C7.14884283,0.680988379 7.14884283,0.930510992 6.98469902,1.0842453 L1.10742699,6.6029129 C1.02556499,6.68017424 0.918094868,6.71841073 0.810624751,6.71841073 C0.703574439,6.71841073 0.596104322,6.68017424 0.513822513,6.6029129 Z" id="Fill-716"></path>
                                    <path d="M3.87226367,6.61000833 C3.70853967,6.45587983 3.70853967,6.2067514 3.87226367,6.0526229 L6.39109455,3.68747965 C6.55523836,3.53335114 6.82097501,3.53335114 6.98469902,3.68747965 C7.14884283,3.84160815 7.14884283,4.09073657 6.98469902,4.24486507 L4.46586815,6.61000833 C4.38400615,6.68687548 4.27653603,6.72550616 4.16906591,6.72550616 C4.0620156,6.72550616 3.95454548,6.68687548 3.87226367,6.61000833 Z" id="Fill-717"></path>
                                    <path d="M0.470162778,3.45648399 C0.306018966,3.30235549 0.306018966,3.05322706 0.470162778,2.89909856 L2.98899365,0.533955307 C3.15313746,0.379826805 3.41845431,0.379826805 3.58259812,0.533955307 C3.74674194,0.688083809 3.74674194,0.937212232 3.58259812,1.09134073 L1.06376725,3.45648399 C0.98190525,3.53335114 0.874435133,3.57198182 0.766965016,3.57198182 C0.659494898,3.57198182 0.552024781,3.53335114 0.470162778,3.45648399 Z" id="Fill-718"></path>
                                </g>
                                <path d="M21.2730418,27.5652424 C20.3596979,27.5652424 19.6184334,26.8239779 19.6184334,25.910634 C19.6184334,24.9972902 20.3596979,24.2560257 21.2730418,24.2560257 C22.1863856,24.2560257 22.9276501,24.9972902 22.9276501,25.910634 C22.9276501,26.8239779 22.1863856,27.5652424 21.2730418,27.5652424 Z" id="Fill-833" fill="#E1E4E1"></path>
                            </g>
                        </g>
                    </g>
                </g>
                <g id="Dynamic-Border" stroke="#1D8E96" stroke-width="4">
                    <rect id="Azure-Border" x="2" y="2" width="96" height="96" rx="48"></rect>
                </g>
            </g>
        </g>
    </g>
</svg>